<?xml version="1.0" encoding="UTF-8"?>
<svg id="_Слой_2" data-name="Слой 2" xmlns="http://www.w3.org/2000/svg" viewBox="0 0 60.41 48.11">
  <defs>
    <style>
      .cls-1 {
        fill: #1a1a1a;
        stroke-width: 0px;
      }
    </style>
  </defs>
  <g id="Layer_2" data-name="Layer 2">
    <g>
      <path class="cls-1" d="m17.13,43.02h-6c-.53,0-.95-.43-.95-.95s.43-.95.95-.95h5.05V6.99h-5.05c-.53,0-.95-.43-.95-.95s.43-.95.95-.95h6c.52,0,.95.43.95.95v36.03c0,.52-.43.95-.95.95Z"/>
      <path class="cls-1" d="m49.28,43.02h-6c-.53,0-.95-.43-.95-.95V6.04c0-.53.43-.95.95-.95h6c.53,0,.95.43.95.95s-.43.95-.95.95h-5.05v34.13h5.05c.53,0,.95.43.95.95s-.43.95-.95.95Z"/>
      <path class="cls-1" d="m23.13,25.01h-12c-.53,0-.95-.43-.95-.95s.43-.95.95-.95h12c.52,0,.95.43.95.95s-.43.95-.95.95Z"/>
      <path class="cls-1" d="m49.28,25.01h-12c-.52,0-.95-.43-.95-.95s.43-.95.95-.95h12c.53,0,.95.43.95.95s-.43.95-.95.95Z"/>
      <path class="cls-1" d="m30.21,32.09c-4.43,0-8.03-3.6-8.03-8.03s3.6-8.03,8.03-8.03,8.03,3.6,8.03,8.03-3.6,8.03-8.03,8.03Zm0-14.16c-3.38,0-6.13,2.75-6.13,6.13s2.75,6.13,6.13,6.13,6.13-2.75,6.13-6.13-2.75-6.13-6.13-6.13Z"/>
      <path class="cls-1" d="m6.04,12.08c-3.33,0-6.04-2.71-6.04-6.04S2.71,0,6.04,0s6.04,2.71,6.04,6.04-2.71,6.04-6.04,6.04Zm0-10.18C3.76,1.9,1.9,3.76,1.9,6.04s1.86,4.14,4.14,4.14,4.14-1.86,4.14-4.14S8.32,1.9,6.04,1.9Z"/>
      <path class="cls-1" d="m54.37,12.08c-3.33,0-6.04-2.71-6.04-6.04s2.71-6.04,6.04-6.04,6.04,2.71,6.04,6.04-2.71,6.04-6.04,6.04Zm0-10.18c-2.28,0-4.14,1.86-4.14,4.14s1.86,4.14,4.14,4.14,4.14-1.86,4.14-4.14-1.86-4.14-4.14-4.14Z"/>
      <path class="cls-1" d="m6.04,30.09c-3.33,0-6.04-2.71-6.04-6.04s2.71-6.04,6.04-6.04,6.04,2.71,6.04,6.04-2.71,6.04-6.04,6.04Zm0-10.18c-2.28,0-4.14,1.86-4.14,4.14s1.86,4.14,4.14,4.14,4.14-1.86,4.14-4.14-1.86-4.14-4.14-4.14Z"/>
      <path class="cls-1" d="m54.37,30.09c-3.33,0-6.04-2.71-6.04-6.04s2.71-6.04,6.04-6.04,6.04,2.71,6.04,6.04-2.71,6.04-6.04,6.04Zm0-10.18c-2.28,0-4.14,1.86-4.14,4.14s1.86,4.14,4.14,4.14,4.14-1.86,4.14-4.14-1.86-4.14-4.14-4.14Z"/>
      <path class="cls-1" d="m6.04,48.11c-3.33,0-6.04-2.71-6.04-6.04s2.71-6.04,6.04-6.04,6.04,2.71,6.04,6.04-2.71,6.04-6.04,6.04Zm0-10.18c-2.28,0-4.14,1.86-4.14,4.14s1.86,4.14,4.14,4.14,4.14-1.86,4.14-4.14-1.86-4.14-4.14-4.14Z"/>
      <path class="cls-1" d="m54.37,48.11c-3.33,0-6.04-2.71-6.04-6.04s2.71-6.04,6.04-6.04,6.04,2.71,6.04,6.04-2.71,6.04-6.04,6.04Zm0-10.18c-2.28,0-4.14,1.86-4.14,4.14s1.86,4.14,4.14,4.14,4.14-1.86,4.14-4.14-1.86-4.14-4.14-4.14Z"/>
    </g>
  </g>
</svg>