<?xml version="1.0" encoding="UTF-8"?>
<svg id="_Слой_2" data-name="Слой 2" xmlns="http://www.w3.org/2000/svg" viewBox="0 0 68.14 48.11">
  <defs>
    <style>
      .cls-1 {
        fill: #1a1a1a;
        stroke-width: 0px;
      }
    </style>
  </defs>
  <g id="Layer_2" data-name="Layer 2">
    <g>
      <path class="cls-1" d="m55.65,38.49h-4.44c-.53,0-.97-.43-.97-.97s.43-.97.97-.97h4.44c5.82,0,10.56-4.74,10.56-10.56s-4.74-10.56-10.56-10.56c-.59,0-1.21.06-1.87.18-.27.05-.55-.02-.77-.19s-.35-.43-.37-.7c-.42-7.17-6.37-12.79-13.55-12.79-5.73,0-10.88,3.64-12.8,9.05-.09.26-.29.47-.55.57-.26.1-.55.09-.8-.04-1.57-.8-3.25-1.21-5-1.21-5.69,0-10.5,4.44-10.95,10.11-.03.44-.36.79-.78.87-3.64.68-6.29,3.86-6.29,7.56,0,4.25,3.45,7.7,7.7,7.7h6.86c.53,0,.97.43.97.97s-.43.97-.97.97h-6.86c-5.31,0-9.63-4.32-9.63-9.63,0-4.38,2.97-8.18,7.15-9.3.86-6.32,6.35-11.18,12.8-11.18,1.7,0,3.35.33,4.92.98C27.31,3.72,32.9,0,39.1,0c7.85,0,14.41,5.88,15.38,13.57.4-.04.79-.06,1.17-.06,6.89,0,12.49,5.6,12.49,12.49s-5.6,12.49-12.49,12.49Z"/>
      <g>
        <path class="cls-1" d="m34.07,33.26c-5.49,0-9.96-4.47-9.96-9.96s4.47-9.96,9.96-9.96,9.96,4.47,9.96,9.96-4.47,9.96-9.96,9.96Zm0-18c-4.43,0-8.03,3.6-8.03,8.03s3.6,8.03,8.03,8.03,8.03-3.6,8.03-8.03-3.6-8.03-8.03-8.03Z"/>
        <path class="cls-1" d="m50.41,48.11H17.73c-.53,0-.97-.43-.97-.97,0-6.2,3.35-11.96,8.74-15.04.42-.24.95-.13,1.24.25.08.11,2.24,2.73,7.33,2.73s7.3-2.7,7.32-2.73c.29-.38.83-.49,1.24-.25,5.39,3.08,8.74,8.84,8.74,15.04,0,.53-.43.97-.97.97Zm-31.68-1.93h30.68c-.31-4.89-2.95-9.37-7.1-12.01-1.1,1-3.73,2.85-8.25,2.85s-7.15-1.84-8.25-2.85c-4.14,2.64-6.79,7.12-7.09,12.01Z"/>
      </g>
    </g>
  </g>
</svg>