<?xml version="1.0" encoding="UTF-8"?>
<svg id="_Слой_2" data-name="Слой 2" xmlns="http://www.w3.org/2000/svg" viewBox="0 0 393.93 393.93">
  <defs>
    <style>
      .cls-1 {
        stroke-width: 0px;
      }
    </style>
  </defs>
  <g id="_Слой_1-2" data-name="Слой 1">
    <path class="cls-1" d="m83.89,0h226.16c23.08,0,44.05,9.43,59.25,24.63,15.2,15.2,24.63,36.17,24.63,59.25v226.16c0,23.08-9.43,44.05-24.63,59.25-15.2,15.2-36.17,24.63-59.25,24.63H83.89c-23.08,0-44.05-9.43-59.25-24.63-15.2-15.2-24.63-36.17-24.63-59.25V83.88c0-23.08,9.43-44.05,24.63-59.25C39.83,9.43,60.81,0,83.89,0h0Zm144.97,161.27v40.61h46.44l-11.46,63.79h-34.98v109.87h81.19c18,0,34.37-7.37,46.24-19.24,11.87-11.87,19.24-28.24,19.24-46.24V83.88c0-18-7.37-34.37-19.24-46.24-11.87-11.87-28.24-19.24-46.24-19.24H83.89c-18,0-34.37,7.37-46.24,19.24-11.87,11.88-19.24,28.24-19.24,46.24v226.16c0,18,7.37,34.37,19.24,46.24,11.87,11.87,28.24,19.24,46.24,19.24h81.19v-109.87h-46.44v-63.79h46.44v-40.61c0-44.12,35.77-79.89,79.89-79.89h30.34v63.79h-30.34c-8.89,0-16.1,7.21-16.1,16.1h0Z"/>
  </g>
</svg>