<?xml version="1.0" encoding="UTF-8"?>
<svg id="_Слой_2" data-name="Слой 2" xmlns="http://www.w3.org/2000/svg" viewBox="0 0 377.33 377.33">
  <defs>
    <style>
      .cls-1 {
        fill: #1d1d1d;
        fill-rule: evenodd;
        stroke-width: 0px;
      }
    </style>
  </defs>
  <g id="_Слой_1-2" data-name="Слой 1">
    <path class="cls-1" d="m80.35,0h216.63c22.11,0,42.19,9.04,56.75,23.6,14.56,14.56,23.6,34.65,23.6,56.75v216.63c0,22.11-9.04,42.2-23.6,56.75-14.56,14.56-34.65,23.6-56.75,23.6H80.35c-22.11,0-42.2-9.04-56.75-23.6-14.56-14.56-23.6-34.65-23.6-56.75V80.35c0-22.11,9.04-42.19,23.6-56.75C38.16,9.04,58.25,0,80.35,0h0Zm-9.45,147.79h58.62v152.88h-58.62v-152.88h0Zm74.12,0h54.59v24.89c8.15-10.21,16.35-17.48,24.69-21.85,8.35-4.37,18.46-6.58,30.44-6.58,16.2,0,28.82,4.81,38,14.48,9.13,9.62,13.7,24.55,13.7,44.72v97.21h-58.91v-84.1c0-9.62-1.77-16.4-5.3-20.37-3.53-3.98-8.49-5.99-14.88-5.99-7.02,0-12.76,2.7-17.13,8.05-4.37,5.4-6.58,15.02-6.58,28.97v73.44h-58.62v-152.88h0Zm-44.81-71.13c16.19,0,29.31,13.12,29.31,29.31s-13.12,29.31-29.31,29.31-29.31-13.12-29.31-29.31,13.12-29.31,29.31-29.31h0Zm196.78-59.04H80.35c-17.24,0-32.92,7.06-44.29,18.43-11.37,11.37-18.43,27.05-18.43,44.29v216.63c0,17.24,7.06,32.92,18.43,44.29,11.37,11.37,27.05,18.43,44.29,18.43h216.63c17.24,0,32.92-7.06,44.29-18.43,11.37-11.37,18.43-27.05,18.43-44.29V80.35c0-17.24-7.06-32.92-18.43-44.29-11.37-11.37-27.05-18.43-44.29-18.43h0Z"/>
  </g>
</svg>