<?xml version="1.0" encoding="UTF-8"?>
<svg id="_Слой_2" data-name="Слой 2" xmlns="http://www.w3.org/2000/svg" viewBox="0 0 396.74 396.74">
  <defs>
    <style>
      .cls-1 {
        fill: #1d1d1d;
        fill-rule: evenodd;
        stroke-width: 0px;
      }
    </style>
  </defs>
  <g id="_Слой_1-2" data-name="Слой 1">
    <path class="cls-1" d="m125.23,76.92h146.29c26.57,0,48.31,21.74,48.31,48.31v146.29c0,26.57-21.74,48.31-48.31,48.31H125.23c-26.57,0-48.31-21.74-48.31-48.31V125.23c0-26.57,21.74-48.31,48.31-48.31h0ZM84.48,0h227.77c23.24,0,44.37,9.5,59.68,24.81,15.31,15.31,24.81,36.43,24.81,59.68v227.77c0,23.24-9.5,44.37-24.81,59.67-15.31,15.31-36.43,24.81-59.68,24.81H84.48c-23.24,0-44.37-9.5-59.67-24.81-15.31-15.31-24.81-36.43-24.81-59.67V84.48c0-23.24,9.5-44.37,24.81-59.68C40.12,9.5,61.24,0,84.48,0h0Zm227.77,18.53H84.48c-18.13,0-34.61,7.42-46.57,19.38-11.96,11.96-19.38,28.44-19.38,46.57v227.77c0,18.13,7.42,34.61,19.38,46.57s28.44,19.38,46.57,19.38h227.77c18.13,0,34.61-7.42,46.57-19.38,11.96-11.96,19.38-28.44,19.38-46.57V84.48c0-18.13-7.42-34.61-19.38-46.57-11.96-11.96-28.44-19.38-46.57-19.38h0Zm-79.76,145.71c-8.73-8.73-20.8-14.14-34.13-14.14s-25.4,5.4-34.13,14.14c-8.73,8.73-14.14,20.8-14.14,34.13s5.4,25.4,14.14,34.13c8.73,8.73,20.8,14.14,34.13,14.14s25.4-5.4,34.13-14.14c8.73-8.73,14.14-20.8,14.14-34.13s-5.4-25.4-14.14-34.13h0Zm-34.13-32.67c18.45,0,35.15,7.48,47.24,19.57,12.09,12.09,19.57,28.79,19.57,47.23s-7.48,35.15-19.57,47.23c-12.09,12.09-28.79,19.57-47.24,19.57s-35.15-7.48-47.23-19.57c-12.09-12.09-19.57-28.79-19.57-47.23s7.48-35.15,19.57-47.23c12.09-12.09,28.79-19.57,47.23-19.57h0Zm77.35-30.48c10.77,0,19.5,8.73,19.5,19.5s-8.73,19.5-19.5,19.5-19.5-8.73-19.5-19.5,8.73-19.5,19.5-19.5h0Z"/>
  </g>
</svg>