<?xml version="1.0" encoding="UTF-8"?>
<svg id="_Слой_2" data-name="Слой 2" xmlns="http://www.w3.org/2000/svg" viewBox="0 0 391.63 391.63">
  <defs>
    <style>
      .cls-1 {
        stroke-width: 0px;
      }
    </style>
  </defs>
  <g id="_Слой_1-2" data-name="Слой 1">
    <g>
      <g>
        <path class="cls-1" d="m141.1,87.12l160.42,213.16h-32.23L109.59,87.28l31.51-.17m8.59-17.32l-74.51.4,185.47,247.37h75.5L149.69,69.79h0Z"/>
        <line class="cls-1" x1="184.37" y1="195.99" x2="179.13" y2="201.67"/>
        <polyline class="cls-1" points="225.27 174.78 321.71 68.99 301.51 68.99 212.96 164.99"/>
        <polyline class="cls-1" points="179.13 201.67 71.13 318.75 94.01 318.75 189.7 213.79"/>
      </g>
      <path class="cls-1" d="m308.33,18c36,0,65.3,29.29,65.3,65.3v225.04c0,36-29.29,65.3-65.3,65.3H83.3c-36,0-65.3-29.29-65.3-65.3V83.3c0-36,29.29-65.3,65.3-65.3h225.04m0-18H83.3C37.29,0,0,37.29,0,83.3v225.04c0,46,37.29,83.3,83.3,83.3h225.04c46,0,83.3-37.29,83.3-83.3V83.3c0-46-37.29-83.3-83.3-83.3h0Z"/>
    </g>
  </g>
</svg>