<svg xmlns="http://www.w3.org/2000/svg" viewBox="0 0 168.93 48.26"><defs><style>.cls-1{fill:#ff5f33;}.cls-2{fill:#1d1d1b;}</style></defs><g id="Слой_2" data-name="Слой 2"><g id="Слой_1-2" data-name="Слой 1"><path class="cls-1" d="M46.68,0H1.59A1.57,1.57,0,0,0,0,1.6V8.17A1.57,1.57,0,0,0,1.59,9.78H31.92a.66.66,0,0,1,.56.41v.22a.49.49,0,0,1-.21.41L11.36,29.18H26l-10.6,9.43H1.8A1.81,1.81,0,0,0,0,40.41v6.27a1.58,1.58,0,0,0,1.58,1.58h45.1a1.59,1.59,0,0,0,1.59-1.58V40.2a1.59,1.59,0,0,0-1.59-1.59H30.08c.71-.66,10.64-9.43,10.64-9.43H26.11L47,10.82a3.35,3.35,0,0,0,1.25-2.65V1.6A1.57,1.57,0,0,0,46.68,0Z"/><path class="cls-1" d="M57.92,46.68a1.55,1.55,0,0,0,1.59,1.58H66a1.55,1.55,0,0,0,1.58-1.58V38.12H57.92Z"/><path class="cls-1" d="M66,0H59.51a1.56,1.56,0,0,0-1.59,1.58V28.81h9.65V1.58A1.56,1.56,0,0,0,66,0Z"/><path class="cls-2" d="M77.23,46.68a1.55,1.55,0,0,0,1.58,1.58h6.48a1.55,1.55,0,0,0,1.59-1.58V38.12H77.23Z"/><path class="cls-2" d="M119.08,0H86.88a9.68,9.68,0,0,0-9.65,9.65V28.81h9.65v9.31h9.65V28.81h17.81a1.52,1.52,0,0,0,1.52-1.52l0-6.4a1.58,1.58,0,0,0-1.59-1.58H88.47a1.59,1.59,0,0,1-1.59-1.59V11.24a1.59,1.59,0,0,1,1.58-1.59h30.62a1.59,1.59,0,0,0,1.59-1.58V1.58A1.59,1.59,0,0,0,119.08,0Z"/><path class="cls-2" d="M167.35,0h-32.2a9.68,9.68,0,0,0-9.66,9.65V28.81h9.66v9.31h9.65V28.81h17.81a1.49,1.49,0,0,0,1.49-1.49V20.89a1.59,1.59,0,0,0-1.59-1.58H136.73a1.59,1.59,0,0,1-1.58-1.59V11.24a1.59,1.59,0,0,1,1.58-1.59h30.62a1.58,1.58,0,0,0,1.58-1.58V1.58A1.58,1.58,0,0,0,167.35,0Z"/><path class="cls-2" d="M125.49,46.68a1.55,1.55,0,0,0,1.59,1.58h6.48a1.55,1.55,0,0,0,1.59-1.58V38.12h-9.66Z"/><rect class="cls-1" x="67.57" y="28.81" width="9.65" height="9.31"/></g></g></svg>