<?xml version="1.0" encoding="UTF-8"?>
<svg id="_Слой_2" data-name="Слой 2" xmlns="http://www.w3.org/2000/svg" viewBox="0 0 391.63 391.63">
  <defs>
    <style>
      .cls-1 {
        fill-rule: evenodd;
        stroke-width: 0px;
      }
    </style>
  </defs>
  <g id="_Слой_1-2" data-name="Слой 1">
    <path class="cls-1" d="m83.39,0h224.84c22.94,0,43.79,9.38,58.91,24.49,15.11,15.11,24.49,35.97,24.49,58.91v224.84c0,22.94-9.38,43.79-24.49,58.9-15.11,15.11-35.96,24.49-58.91,24.49H83.39c-22.94,0-43.79-9.38-58.9-24.49-15.11-15.11-24.49-35.96-24.49-58.9V83.39c0-22.94,9.38-43.79,24.49-58.91C39.6,9.38,60.45,0,83.39,0h0Zm-2.32,162.93l117.67-15.26,117.67-15.26-52.4,77.74-52.4,77.74-56.37-53.96,74.99-60.95-101.98,35.13-47.19-45.17h0ZM308.23,18.29H83.39c-17.89,0-34.17,7.33-45.97,19.13-11.8,11.8-19.13,28.07-19.13,45.97v224.84c0,17.89,7.33,34.17,19.13,45.97,11.8,11.8,28.08,19.13,45.97,19.13h224.84c17.89,0,34.17-7.33,45.97-19.13,11.81-11.8,19.13-28.08,19.13-45.97V83.39c0-17.89-7.33-34.17-19.13-45.97-11.8-11.81-28.07-19.13-45.97-19.13h0Z"/>
  </g>
</svg>