<?xml version="1.0" encoding="UTF-8"?>
<svg id="_Слой_2" data-name="Слой 2" xmlns="http://www.w3.org/2000/svg" viewBox="0 0 54.97 48.11">
  <defs>
    <style>
      .cls-1 {
        fill: #1a1a1a;
        stroke-width: 0px;
      }
    </style>
  </defs>
  <g id="Layer_2" data-name="Layer 2">
    <g>
      <g>
        <g>
          <path class="cls-1" d="m48.03,40.31c-.46,0-.82-.37-.82-.82v-9.65c0-.46.37-.82.82-.82s.82.37.82.82v9.65c0,.46-.37.82-.82.82Z"/>
          <path class="cls-1" d="m6.65,40.66c-.46,0-.82-.37-.82-.82V15.45c0-1.46,1.19-2.65,2.65-2.65h24.24c.46,0,.82.37.82.82s-.37.82-.82.82H8.47c-.55,0-1,.45-1,1v24.39c0,.46-.37.82-.82.82Z"/>
          <path class="cls-1" d="m43.35,38.84H11.32c-.46,0-.82-.37-.82-.82v-19.72c0-.46.37-.82.82-.82h21.48c.46,0,.82.37.82.82s-.37.82-.82.82H12.15v18.07h30.38v-7.35c0-.46.37-.82.82-.82s.82.37.82.82v8.17c0,.46-.37.82-.82.82Z"/>
          <path class="cls-1" d="m52.24,48.11H2.44c-1.35,0-2.44-1.09-2.44-2.44v-2.98c0-.46.37-.82.82-.82h53.03c.46,0,.82.37.82.82v2.98c0,1.35-1.09,2.44-2.44,2.44ZM1.65,43.51v2.16c0,.44.35.79.79.79h49.8c.44,0,.79-.35.79-.79v-2.16H1.65Z"/>
        </g>
        <g>
          <path class="cls-1" d="m51.73,27.25h-13.33c-1.79,0-3.24-1.46-3.24-3.24v-10.42c0-1.79,1.46-3.24,3.24-3.24h13.33c1.79,0,3.24,1.46,3.24,3.24v10.42c0,1.79-1.46,3.24-3.24,3.24Zm-13.33-15.25c-.88,0-1.6.72-1.6,1.59v10.42c0,.88.72,1.59,1.6,1.59h13.33c.88,0,1.59-.72,1.59-1.59v-10.42c0-.88-.72-1.59-1.59-1.59h-13.33Z"/>
          <path class="cls-1" d="m51.83,11.99c-.46,0-.82-.37-.82-.82v-3.58c0-3.28-2.67-5.94-5.94-5.94s-5.94,2.67-5.94,5.94v3.58c0,.46-.37.82-.82.82s-.82-.37-.82-.82v-3.58c0-4.18,3.4-7.59,7.59-7.59s7.59,3.4,7.59,7.59v3.58c0,.46-.37.82-.82.82Z"/>
        </g>
      </g>
      <path class="cls-1" d="m43.71,22.92c-.21,0-.42-.08-.58-.24l-3.89-3.89c-.32-.32-.32-.84,0-1.17s.84-.32,1.17,0l3.31,3.31,6.02-6.02c.32-.32.84-.32,1.17,0,.32.32.32.84,0,1.17l-6.61,6.61c-.16.16-.37.24-.58.24Z"/>
    </g>
  </g>
</svg>